<svg width="529" height="397" xmlns="http://www.w3.org/2000/svg" xmlns:xlink="http://www.w3.org/1999/xlink" xml:space="preserve" overflow="hidden"><defs><clipPath id="clip0"><rect x="0" y="0" width="529" height="397"/></clipPath><clipPath id="clip1"><rect x="33" y="28" width="21" height="58"/></clipPath><clipPath id="clip2"><rect x="13" y="86" width="20" height="57"/></clipPath><clipPath id="clip3"><rect x="33" y="86" width="21" height="57"/></clipPath><clipPath id="clip4"><rect x="13" y="143" width="20" height="58"/></clipPath><clipPath id="clip5"><rect x="33" y="143" width="21" height="58"/></clipPath><clipPath id="clip6"><rect x="13" y="200" width="20" height="58"/></clipPath><clipPath id="clip7"><rect x="33" y="200" width="21" height="58"/></clipPath><clipPath id="clip8"><rect x="13" y="257" width="20" height="58"/></clipPath><clipPath id="clip9"><rect x="33" y="257" width="21" height="58"/></clipPath><clipPath id="clip10"><rect x="13" y="315" width="20" height="58"/></clipPath></defs><g clip-path="url(#clip0)"><path d="M0.183477 0.183477 528.596 0.183477 528.596 396.493 0.183477 396.493Z" stroke="#000000" stroke-width="0.366953" stroke-linejoin="round" fill="none" transform="matrix(1 0 0 1.00017 0.11012 0)"/><text fill="#231815" font-family="Arial,Arial_MSFontService,sans-serif" font-weight="400" font-size="8" transform="matrix(0.733907 0 0 0.73403 1.76875 395)">printed Mon May 23 2022 20:51:11 by vlsisj2022063 <tspan font-size="8" x="174" y="0">on tsri</tspan><tspan font-size="8" x="195" y="0">16</tspan><tspan font-size="8" x="582.99" y="0">Synopsys</tspan>, Inc. (c) 2000-2017<tspan font-size="14" x="17.98" y="-516.328">**</tspan><tspan font-size="14" x="27.98" y="-516.328">testbench</tspan><tspan font-size="14" x="89.98" y="-516.328">**                                                    </tspan><tspan font-size="14" x="307.98" y="-516.328">05</tspan><tspan font-size="14" x="323.98" y="-516.328">/</tspan><tspan font-size="14" x="327.98" y="-516.328">23</tspan><tspan font-size="14" x="343.98" y="-516.328">/</tspan><tspan font-size="14" x="347.98" y="-516.328">2022       20</tspan><tspan font-size="14" x="423.98" y="-516.328">:</tspan><tspan font-size="14" x="427.98" y="-516.328">40</tspan><tspan font-size="14" x="443.98" y="-516.328">:</tspan><tspan font-size="14" x="447.98" y="-516.328">06</tspan><tspan font-size="12" x="617.99" y="-516.328">waveview </tspan><tspan font-size="12" x="672.99" y="-516.328">1</tspan></text><path d="M244.061 472.636 757.795 472.636 757.795 102.747 244.061 102.747ZM244.061 111.253 757.795 111.253M244.061 456.96 757.795 456.96M304.755 111.664 304.755 456.923" stroke="#000000" stroke-width="0.366953" stroke-linejoin="round" fill="none" transform="matrix(1 0 0 1.00017 -236.428 -83.4592)"/><text fill="#231815" font-family="Arial,Arial_MSFontService,sans-serif" font-weight="400" font-size="10" transform="matrix(0.733907 0 0 0.73403 68.3267 382)">0</text><path d="M68.5249 373.478 68.5249 376.171" stroke="#000000" stroke-width="0.366953" stroke-linejoin="round" fill="none" transform="matrix(1 0 0 1.00017 0.11012 0)"/><text fill="#231815" font-family="Arial,Arial_MSFontService,sans-serif" font-weight="400" font-size="10" transform="matrix(0.733907 0 0 0.73403 68.3267 25)">0</text><path d="M305.063 111.216 305.063 108.53M327.454 111.216 327.454 109.425M327.454 456.923 327.454 458.692M349.846 111.194 349.846 109.425M349.846 456.923 349.846 458.692M372.23 111.194 372.23 109.425M372.23 456.923 372.23 458.692M394.622 111.216 394.622 109.425M394.622 456.923 394.622 458.692" stroke="#000000" stroke-width="0.366953" stroke-linejoin="round" fill="none" transform="matrix(1 0 0 1.00017 -236.428 -83.4592)"/><text fill="#231815" font-family="Arial,Arial_MSFontService,sans-serif" font-weight="400" font-size="10" transform="matrix(0.733907 0 0 0.73403 175.785 382)">500<tspan font-size="10" x="18" y="0">n</tspan></text><path d="M180.314 373.478 180.314 376.171" stroke="#000000" stroke-width="0.366953" stroke-linejoin="round" fill="none" transform="matrix(1 0 0 1.00017 0.11012 0)"/><text fill="#231815" font-family="Arial,Arial_MSFontService,sans-serif" font-weight="400" font-size="10" transform="matrix(0.733907 0 0 0.73403 175.785 25)">500<tspan font-size="10" x="18" y="0">n</tspan></text><path d="M416.859 111.216 416.859 108.53M439.405 111.216 439.405 109.425M439.405 456.923 439.405 458.692M461.796 111.194 461.796 109.425M461.796 456.923 461.796 458.692M484.18 111.194 484.18 109.425M484.18 456.923 484.18 458.692M506.572 111.194 506.572 109.425M506.572 456.923 506.572 458.692" stroke="#000000" stroke-width="0.366953" stroke-linejoin="round" fill="none" transform="matrix(1 0 0 1.00017 -236.428 -83.4592)"/><text fill="#231815" font-family="Arial,Arial_MSFontService,sans-serif" font-weight="400" font-size="10" transform="matrix(0.733907 0 0 0.73403 290.356 382)">1<tspan font-size="10" x="6" y="0">u</tspan></text><path d="M292.418 373.478 292.418 376.171" stroke="#000000" stroke-width="0.366953" stroke-linejoin="round" fill="none" transform="matrix(1 0 0 1.00017 0.11012 0)"/><text fill="#231815" font-family="Arial,Arial_MSFontService,sans-serif" font-weight="400" font-size="10" transform="matrix(0.733907 0 0 0.73403 290.356 25)">1<tspan font-size="10" x="6" y="0">u</tspan></text><path d="M528.956 111.216 528.956 108.53M551.34 111.216 551.34 109.425M551.34 456.923 551.34 458.692M573.732 111.194 573.732 109.425M573.732 456.923 573.732 458.692M596.116 111.194 596.116 109.425M596.116 456.923 596.116 458.692M618.507 111.194 618.507 109.425M618.507 456.923 618.507 458.692" stroke="#000000" stroke-width="0.366953" stroke-linejoin="round" fill="none" transform="matrix(1 0 0 1.00017 -236.428 -83.4592)"/><text fill="#231815" font-family="Arial,Arial_MSFontService,sans-serif" font-weight="400" font-size="10" transform="matrix(0.733907 0 0 0.73403 400.603 382)">1<tspan font-size="10" x="6" y="0">.</tspan><tspan font-size="10" x="9" y="0">5</tspan><tspan font-size="10" x="15" y="0">u</tspan></text><path d="M404.206 373.478 404.206 376.171" stroke="#000000" stroke-width="0.366953" stroke-linejoin="round" fill="none" transform="matrix(1 0 0 1.00017 0.11012 0)"/><text fill="#231815" font-family="Arial,Arial_MSFontService,sans-serif" font-weight="400" font-size="10" transform="matrix(0.733907 0 0 0.73403 400.603 25)">1<tspan font-size="10" x="6" y="0">.</tspan><tspan font-size="10" x="9" y="0">5</tspan><tspan font-size="10" x="15" y="0">u</tspan></text><path d="M640.745 111.216 640.745 108.53M663.283 111.216 663.283 109.425M663.283 456.923 663.283 458.692M685.674 111.194 685.674 109.425M685.674 456.923 685.674 458.692M708.066 111.194 708.066 109.425M708.066 456.923 708.066 458.692M730.45 111.194 730.45 109.425M730.45 456.923 730.45 458.692" stroke="#000000" stroke-width="0.366953" stroke-linejoin="round" fill="none" transform="matrix(1 0 0 1.00017 -236.428 -83.4592)"/><text fill="#231815" font-family="Arial,Arial_MSFontService,sans-serif" font-weight="400" font-size="10" transform="matrix(0.733907 0 0 0.73403 514.248 382)">2<tspan font-size="10" x="6" y="0">u</tspan></text><path d="M516.303 373.478 516.303 376.171" stroke="#000000" stroke-width="0.366953" stroke-linejoin="round" fill="none" transform="matrix(1 0 0 1.00017 0.11012 0)"/><text fill="#231815" font-family="Arial,Arial_MSFontService,sans-serif" font-weight="400" font-size="10" transform="matrix(0.733907 0 0 0.73403 514.248 25)">2<tspan font-size="10" x="6" y="0">u</tspan></text><path d="M516.303 27.771 516.303 25.0849" stroke="#000000" stroke-width="0.366953" stroke-linejoin="round" fill="none" transform="matrix(1 0 0 1.00017 0.11012 0)"/><text fill="#231815" font-family="Arial,Arial_MSFontService,sans-serif" font-weight="400" font-size="10" transform="matrix(0.733907 0 0 0.73403 274.261 387)">TIME<tspan font-size="10" x="26" y="0">(</tspan><tspan font-size="10" x="29" y="0">sec</tspan><tspan font-size="10" x="44" y="0">) (</tspan><tspan font-size="10" x="53" y="0">lin</tspan><tspan font-size="10" x="60.26" y="0">)</tspan></text><path d="M244.061 168.989 753.15 168.989M304.733 111.664 304.733 168.989M753.15 111.664 753.15 168.989" stroke="#000000" stroke-width="0.366953" stroke-linejoin="round" fill="none" transform="matrix(1 0 0 1.00017 -236.428 -83.4592)"/><path d="M303.206 167.191 304.755 167.191M303.837 166.002 304.769 166.002M303.837 164.806 304.769 164.806M303.837 163.61 304.769 163.61M303.837 162.421 304.769 162.421" stroke="#000000" stroke-width="0.366953" stroke-linejoin="round" fill="none" transform="matrix(1 0 0 1.00017 -236.428 -83.4592)"/><path d="M68.2166 83.7461 516.612 83.7461" stroke="#000000" stroke-width="0.0733907" stroke-linejoin="round" stroke-dasharray="1.46781 1.46781" fill="none" transform="matrix(1 0 0 1.00017 0.11012 0)"/><text font-family="Arial,Arial_MSFontService,sans-serif" font-weight="400" font-size="10" transform="matrix(0.733907 0 0 0.73403 64.3049 85)">0</text><path d="M303.206 161.225 304.755 161.225M303.837 160.028 304.769 160.028M303.837 158.832 304.769 158.832M303.837 157.643 304.769 157.643M303.837 156.447 304.769 156.447" stroke="#000000" stroke-width="0.366953" stroke-linejoin="round" fill="none" transform="matrix(1 0 0 1.00017 -236.428 -83.4592)"/><path d="M68.2166 77.7794 516.612 77.7794" stroke="#000000" stroke-width="0.0733907" stroke-linejoin="round" stroke-dasharray="1.46781 1.46781" fill="none" transform="matrix(1 0 0 1.00017 0.11012 0)"/><path d="M303.206 155.251 304.755 155.251M303.837 154.062 304.769 154.062M303.837 152.865 304.769 152.865M303.837 151.669 304.769 151.669M303.837 150.451 304.769 150.451" stroke="#000000" stroke-width="0.366953" stroke-linejoin="round" fill="none" transform="matrix(1 0 0 1.00017 -236.428 -83.4592)"/><path d="M68.2166 71.8054 516.612 71.8054" stroke="#000000" stroke-width="0.0733907" stroke-linejoin="round" stroke-dasharray="1.46781 1.46781" fill="none" transform="matrix(1 0 0 1.00017 0.11012 0)"/><text font-family="Arial,Arial_MSFontService,sans-serif" font-weight="400" font-size="10" transform="matrix(0.733907 0 0 0.73403 60.8923 75)">0<tspan font-size="10" x="6" y="0">.</tspan><tspan font-size="10" x="7.5" y="0">4</tspan></text><path d="M303.206 149.284 304.755 149.284M303.837 148.088 304.769 148.088M303.837 146.891 304.769 146.891M303.837 145.702 304.769 145.702M303.837 144.506 304.769 144.506" stroke="#000000" stroke-width="0.366953" stroke-linejoin="round" fill="none" transform="matrix(1 0 0 1.00017 -236.428 -83.4592)"/><path d="M68.2166 65.8388 516.612 65.8388" stroke="#000000" stroke-width="0.0733907" stroke-linejoin="round" stroke-dasharray="1.46781 1.46781" fill="none" transform="matrix(1 0 0 1.00017 0.11012 0)"/><text font-family="Arial,Arial_MSFontService,sans-serif" font-weight="400" font-size="10" transform="matrix(0.733907 0 0 0.73403 60.8923 69)">0<tspan font-size="10" x="6" y="0">.</tspan><tspan font-size="10" x="7.5" y="0">6</tspan></text><path d="M303.206 143.31 304.755 143.31M303.837 142.114 304.769 142.114M303.837 140.91 304.769 140.91M303.837 139.729 304.769 139.729M303.837 138.532 304.769 138.532" stroke="#000000" stroke-width="0.366953" stroke-linejoin="round" fill="none" transform="matrix(1 0 0 1.00017 -236.428 -83.4592)"/><path d="M68.2166 59.8648 516.612 59.8648" stroke="#000000" stroke-width="0.0733907" stroke-linejoin="round" stroke-dasharray="1.46781 1.46781" fill="none" transform="matrix(1 0 0 1.00017 0.11012 0)"/><text font-family="Arial,Arial_MSFontService,sans-serif" font-weight="400" font-size="10" transform="matrix(0.733907 0 0 0.73403 60.8923 63)">0<tspan font-size="10" x="6" y="0">.</tspan><tspan font-size="10" x="7.5" y="0">8</tspan></text><path d="M303.206 137.343 304.755 137.343M303.837 136.147 304.769 136.147M303.837 134.951 304.769 134.951M303.837 133.762 304.769 133.762M303.837 132.566 304.769 132.566" stroke="#000000" stroke-width="0.366953" stroke-linejoin="round" fill="none" transform="matrix(1 0 0 1.00017 -236.428 -83.4592)"/><path d="M68.2166 53.8981 516.612 53.8981" stroke="#000000" stroke-width="0.0733907" stroke-linejoin="round" stroke-dasharray="1.46781 1.46781" fill="none" transform="matrix(1 0 0 1.00017 0.11012 0)"/><text font-family="Arial,Arial_MSFontService,sans-serif" font-weight="400" font-size="10" transform="matrix(0.733907 0 0 0.73403 64.6132 57)">1</text><path d="M303.206 131.369 304.755 131.369M303.837 130.173 304.769 130.173M303.837 128.984 304.769 128.984M303.837 127.788 304.769 127.788M303.837 126.592 304.769 126.592" stroke="#000000" stroke-width="0.366953" stroke-linejoin="round" fill="none" transform="matrix(1 0 0 1.00017 -236.428 -83.4592)"/><path d="M68.2166 47.9241 516.612 47.9241" stroke="#000000" stroke-width="0.0733907" stroke-linejoin="round" stroke-dasharray="1.46781 1.46781" fill="none" transform="matrix(1 0 0 1.00017 0.11012 0)"/><text font-family="Arial,Arial_MSFontService,sans-serif" font-weight="400" font-size="10" transform="matrix(0.733907 0 0 0.73403 61.2079 51)">1<tspan font-size="10" x="6" y="0">.</tspan><tspan font-size="10" x="7.5" y="0">2</tspan></text><path d="M303.206 125.403 304.755 125.403M303.837 124.206 304.769 124.206M303.837 123.01 304.769 123.01M303.837 121.829 304.769 121.829M303.837 120.625 304.769 120.625" stroke="#000000" stroke-width="0.366953" stroke-linejoin="round" fill="none" transform="matrix(1 0 0 1.00017 -236.428 -83.4592)"/><path d="M68.2166 41.9574 516.612 41.9574" stroke="#000000" stroke-width="0.0733907" stroke-linejoin="round" stroke-dasharray="1.46781 1.46781" fill="none" transform="matrix(1 0 0 1.00017 0.11012 0)"/><text font-family="Arial,Arial_MSFontService,sans-serif" font-weight="400" font-size="10" transform="matrix(0.733907 0 0 0.73403 61.2079 45)">1<tspan font-size="10" x="6" y="0">.</tspan><tspan font-size="10" x="7.5" y="0">4</tspan></text><path d="M303.206 119.429 304.755 119.429M303.837 118.232 304.769 118.232M303.837 117.043 304.769 117.043M303.837 115.847 304.769 115.847M303.837 114.651 304.769 114.651" stroke="#000000" stroke-width="0.366953" stroke-linejoin="round" fill="none" transform="matrix(1 0 0 1.00017 -236.428 -83.4592)"/><path d="M68.2166 35.9834 516.612 35.9834" stroke="#000000" stroke-width="0.0733907" stroke-linejoin="round" stroke-dasharray="1.46781 1.46781" fill="none" transform="matrix(1 0 0 1.00017 0.11012 0)"/><text font-family="Arial,Arial_MSFontService,sans-serif" font-weight="400" font-size="10" transform="matrix(0.733907 0 0 0.73403 61.2079 39)">1<tspan font-size="10" x="6" y="0">.</tspan><tspan font-size="10" x="7.5" y="0">6</tspan></text><path d="M66.6681 30.0094 68.2166 30.0094" stroke="#000000" stroke-width="0.366953" stroke-linejoin="round" fill="none" transform="matrix(1 0 0 1.00017 0.11012 0)"/><path d="M68.2166 30.0094 516.612 30.0094" stroke="#000000" stroke-width="0.0733907" stroke-linejoin="round" stroke-dasharray="1.46781 1.46781" fill="none" transform="matrix(1 0 0 1.00017 0.11012 0)"/><text font-family="Arial,Arial_MSFontService,sans-serif" font-weight="400" font-size="10" transform="matrix(0.733907 0 0 0.73403 61.2079 34)">1<tspan font-size="10" x="6" y="0">.</tspan><tspan font-size="10" x="7.5" y="0">8</tspan></text><text font-family="Arial,Arial_MSFontService,sans-serif" font-weight="400" font-size="10" transform="matrix(4.49388e-17 -0.73403 0.733907 4.49463e-17 58.7272 57)">(<tspan font-size="10" x="2.72469" y="-1.66839e-16">lin</tspan><tspan font-size="10" x="13.6234" y="-8.34194e-16">)</tspan></text><path d="M416.859 169.437 416.859 112.112M528.963 169.437 528.963 112.112M640.752 169.437 640.752 112.112M752.849 169.437 752.849 112.112" stroke="#000000" stroke-width="0.0733907" stroke-linejoin="round" stroke-dasharray="1.46781 1.46781" fill="none" transform="matrix(1 0 0 1.00017 -236.428 -83.4592)"/><path d="M305.415 167.191 327.432 167.191 327.432 159.118 327.432 152.396 327.521 130.863 327.565 121.469 327.565 113.44 349.912 113.44 349.912 120.163 349.912 121.851 349.912 127.252 349.949 135.861 349.949 139.765 349.949 143.537 349.949 146.818 349.949 150.862 349.949 167.177 371.966 167.177 371.966 160.461 371.966 155.412 372.032 139.266 372.032 132.661 372.076 120.882 372.113 113.469 394.453 113.469 394.453 120.192 394.453 121.895 394.453 127.333 394.49 135.898 394.49 139.802 394.49 143.567 394.49 146.847 394.49 150.899 394.49 162.781 394.49 165.195 394.49 167.191 416.507 167.191 416.507 160.476 416.507 155.434 416.573 139.288 416.573 132.683 416.624 120.94 416.624 113.44 439.61 113.44 439.61 120.163 439.61 121.858 439.61 127.303 439.647 135.868 439.647 139.773 439.647 143.537 439.647 146.818 439.647 150.869 439.647 162.781 439.647 165.195 439.647 167.191 461.664 167.191 461.664 160.476 461.664 155.434 461.737 139.288 461.737 132.683 461.789 120.94 461.789 113.44 467.858 113.44M467.858 113.44 484.378 113.44 484.378 120.163 484.378 121.858 484.378 127.303 484.378 135.868 484.378 139.773 484.378 143.537 484.378 146.818 484.378 150.869 484.378 167.177 506.396 167.177 506.396 160.461 506.396 155.419 506.462 139.273 506.462 132.668 506.506 120.926 506.506 113.425 529.147 113.425 529.147 120.148 529.147 121.843 529.147 127.289 529.183 135.853 529.183 139.758 529.183 143.523 529.183 146.803 529.183 150.855 529.183 167.162 551.201 167.162 551.201 160.447 551.201 155.405 551.267 139.259 551.267 132.654 551.311 120.911 551.311 113.411 573.915 113.411 573.915 120.133 573.915 121.829 573.915 127.274 573.915 135.839 573.915 139.743 573.915 143.508 573.915 146.789 573.915 150.84 573.915 162.781 573.915 165.195 573.915 167.191 595.932 167.191 595.932 160.476 595.932 155.434 595.998 139.288 595.998 132.683 596.05 120.94 596.05 113.44 618.683 113.44 618.683 120.163 618.683 121.858M618.683 121.858 618.683 127.303 618.683 135.868 618.683 139.773 618.683 143.537 618.683 146.818 618.683 150.869 618.683 167.177 640.701 167.177 640.701 160.461 640.701 155.419 640.774 139.273 640.774 132.668 640.825 120.926 640.825 113.425 663.452 113.425 663.452 120.148 663.452 121.843 663.452 127.289 663.452 135.853 663.452 139.758 663.452 143.523 663.452 146.803 663.452 150.855 663.452 167.162 685.469 167.162 685.469 160.447 685.469 155.405 685.535 139.259 685.535 132.654 685.579 120.911 685.616 113.411 708.22 113.411 708.22 120.133 708.22 121.829 708.22 127.274 708.22 135.839 708.22 139.743 708.22 143.508 708.22 146.789 708.22 150.84 708.22 165.151 708.22 167.147 730.2 167.147 730.2 160.432 730.2 155.39 730.266 139.244 730.266 132.639 730.318 120.896 730.318 113.396 752.482 113.396" stroke="#993333" stroke-width="1.76138" stroke-linejoin="round" fill="none" transform="matrix(1 0 0 1.00017 -236.428 -83.4592)"/><text fill="#993333" font-family="Arial,Arial_MSFontService,sans-serif" font-weight="400" font-size="10" transform="matrix(0.733907 0 0 0.73403 13.5186 34)">v(clk<tspan font-size="10" x="20" y="0">)</tspan></text><g clip-path="url(#clip1)"><text font-family="Arial,Arial_MSFontService,sans-serif" font-weight="400" font-size="10" transform="matrix(0.733907 0 0 0.73403 33.9506 34)">N</text></g><text font-family="Arial,Arial_MSFontService,sans-serif" font-weight="400" font-size="10" transform="matrix(0.733907 0 0 0.73403 39.2494 34)">/<tspan font-size="10" x="3" y="0">A</tspan></text><path d="M244.061 168.989 753.15 168.989M244.061 226.307 753.15 226.307M304.733 168.989 304.733 226.307M753.15 168.989 753.15 226.307" stroke="#000000" stroke-width="0.366953" stroke-linejoin="round" fill="none" transform="matrix(1 0 0 1.00017 -236.428 -83.4592)"/><path d="M303.206 224.517 304.755 224.517M303.837 223.32 304.769 223.32M303.837 222.124 304.769 222.124M303.837 220.906 304.769 220.906M303.837 219.739 304.769 219.739" stroke="#000000" stroke-width="0.366953" stroke-linejoin="round" fill="none" transform="matrix(1 0 0 1.00017 -236.428 -83.4592)"/><path d="M68.2166 141.072 516.612 141.072" stroke="#000000" stroke-width="0.0733907" stroke-linejoin="round" stroke-dasharray="1.46781 1.46781" fill="none" transform="matrix(1 0 0 1.00017 0.11012 0)"/><text font-family="Arial,Arial_MSFontService,sans-serif" font-weight="400" font-size="10" transform="matrix(0.733907 0 0 0.73403 64.3049 142)">0</text><path d="M303.206 218.543 304.755 218.543M303.837 217.346 304.769 217.346M303.837 216.158 304.769 216.158M303.837 214.961 304.769 214.961M303.837 213.765 304.769 213.765" stroke="#000000" stroke-width="0.366953" stroke-linejoin="round" fill="none" transform="matrix(1 0 0 1.00017 -236.428 -83.4592)"/><path d="M68.2166 135.098 516.612 135.098" stroke="#000000" stroke-width="0.0733907" stroke-linejoin="round" stroke-dasharray="1.46781 1.46781" fill="none" transform="matrix(1 0 0 1.00017 0.11012 0)"/><path d="M303.206 212.569 304.755 212.569M303.837 211.365 304.769 211.365M303.837 210.184 304.769 210.184M303.837 208.987 304.769 208.987M303.837 207.798 304.769 207.798" stroke="#000000" stroke-width="0.366953" stroke-linejoin="round" fill="none" transform="matrix(1 0 0 1.00017 -236.428 -83.4592)"/><path d="M68.2166 129.124 516.612 129.124" stroke="#000000" stroke-width="0.0733907" stroke-linejoin="round" stroke-dasharray="1.46781 1.46781" fill="none" transform="matrix(1 0 0 1.00017 0.11012 0)"/><text font-family="Arial,Arial_MSFontService,sans-serif" font-weight="400" font-size="10" transform="matrix(0.733907 0 0 0.73403 60.8923 132)">0<tspan font-size="10" x="6" y="0">.</tspan><tspan font-size="10" x="7.5" y="0">4</tspan></text><path d="M303.206 206.602 304.755 206.602M303.837 205.406 304.769 205.406M303.837 204.217 304.769 204.217M303.837 203.021 304.769 203.021M303.837 201.824 304.769 201.824" stroke="#000000" stroke-width="0.366953" stroke-linejoin="round" fill="none" transform="matrix(1 0 0 1.00017 -236.428 -83.4592)"/><path d="M68.2166 123.157 516.612 123.157" stroke="#000000" stroke-width="0.0733907" stroke-linejoin="round" stroke-dasharray="1.46781 1.46781" fill="none" transform="matrix(1 0 0 1.00017 0.11012 0)"/><text font-family="Arial,Arial_MSFontService,sans-serif" font-weight="400" font-size="10" transform="matrix(0.733907 0 0 0.73403 60.8923 126)">0<tspan font-size="10" x="6" y="0">.</tspan><tspan font-size="10" x="7.5" y="0">6</tspan></text><path d="M303.206 200.628 304.755 200.628M303.837 199.439 304.769 199.439M303.837 198.243 304.769 198.243M303.837 197.047 304.769 197.047M303.837 195.858 304.769 195.858" stroke="#000000" stroke-width="0.366953" stroke-linejoin="round" fill="none" transform="matrix(1 0 0 1.00017 -236.428 -83.4592)"/><path d="M68.2166 117.183 516.612 117.183" stroke="#000000" stroke-width="0.0733907" stroke-linejoin="round" stroke-dasharray="1.46781 1.46781" fill="none" transform="matrix(1 0 0 1.00017 0.11012 0)"/><text font-family="Arial,Arial_MSFontService,sans-serif" font-weight="400" font-size="10" transform="matrix(0.733907 0 0 0.73403 60.8923 120)">0<tspan font-size="10" x="6" y="0">.</tspan><tspan font-size="10" x="7.5" y="0">8</tspan></text><path d="M303.206 194.661 304.755 194.661M303.837 193.465 304.769 193.465M303.837 192.284 304.769 192.284M303.837 191.08 304.769 191.08M303.837 189.884 304.769 189.884" stroke="#000000" stroke-width="0.366953" stroke-linejoin="round" fill="none" transform="matrix(1 0 0 1.00017 -236.428 -83.4592)"/><path d="M68.2166 111.216 516.612 111.216" stroke="#000000" stroke-width="0.0733907" stroke-linejoin="round" stroke-dasharray="1.46781 1.46781" fill="none" transform="matrix(1 0 0 1.00017 0.11012 0)"/><text font-family="Arial,Arial_MSFontService,sans-serif" font-weight="400" font-size="10" transform="matrix(0.733907 0 0 0.73403 64.6132 114)">1</text><path d="M303.206 188.687 304.755 188.687M303.837 187.498 304.769 187.498M303.837 186.302 304.769 186.302M303.837 185.106 304.769 185.106M303.837 183.91 304.769 183.91" stroke="#000000" stroke-width="0.366953" stroke-linejoin="round" fill="none" transform="matrix(1 0 0 1.00017 -236.428 -83.4592)"/><path d="M68.2166 105.242 516.612 105.242" stroke="#000000" stroke-width="0.0733907" stroke-linejoin="round" stroke-dasharray="1.46781 1.46781" fill="none" transform="matrix(1 0 0 1.00017 0.11012 0)"/><text font-family="Arial,Arial_MSFontService,sans-serif" font-weight="400" font-size="10" transform="matrix(0.733907 0 0 0.73403 61.2079 108)">1<tspan font-size="10" x="6" y="0">.</tspan><tspan font-size="10" x="7.5" y="0">2</tspan></text><path d="M303.206 182.743 304.755 182.743M303.837 181.524 304.769 181.524M303.837 180.328 304.769 180.328M303.837 179.139 304.769 179.139M303.837 177.943 304.769 177.943" stroke="#000000" stroke-width="0.366953" stroke-linejoin="round" fill="none" transform="matrix(1 0 0 1.00017 -236.428 -83.4592)"/><path d="M68.2166 99.2756 516.612 99.2756" stroke="#000000" stroke-width="0.0733907" stroke-linejoin="round" stroke-dasharray="1.46781 1.46781" fill="none" transform="matrix(1 0 0 1.00017 0.11012 0)"/><text font-family="Arial,Arial_MSFontService,sans-serif" font-weight="400" font-size="10" transform="matrix(0.733907 0 0 0.73403 61.2079 102)">1<tspan font-size="10" x="6" y="0">.</tspan><tspan font-size="10" x="7.5" y="0">4</tspan></text><path d="M303.206 176.747 304.755 176.747M303.837 175.55 304.769 175.55M303.837 174.362 304.769 174.362M303.837 173.202 304.769 173.202M303.837 171.969 304.769 171.969" stroke="#000000" stroke-width="0.366953" stroke-linejoin="round" fill="none" transform="matrix(1 0 0 1.00017 -236.428 -83.4592)"/><path d="M68.2166 93.3016 516.612 93.3016" stroke="#000000" stroke-width="0.0733907" stroke-linejoin="round" stroke-dasharray="1.46781 1.46781" fill="none" transform="matrix(1 0 0 1.00017 0.11012 0)"/><text font-family="Arial,Arial_MSFontService,sans-serif" font-weight="400" font-size="10" transform="matrix(0.733907 0 0 0.73403 61.2079 96)">1<tspan font-size="10" x="6" y="0">.</tspan><tspan font-size="10" x="7.5" y="0">6</tspan></text><path d="M66.6681 87.3349 68.2166 87.3349" stroke="#000000" stroke-width="0.366953" stroke-linejoin="round" fill="none" transform="matrix(1 0 0 1.00017 0.11012 0)"/><path d="M68.2166 87.3349 516.612 87.3349" stroke="#000000" stroke-width="0.0733907" stroke-linejoin="round" stroke-dasharray="1.46781 1.46781" fill="none" transform="matrix(1 0 0 1.00017 0.11012 0)"/><text font-family="Arial,Arial_MSFontService,sans-serif" font-weight="400" font-size="10" transform="matrix(0.733907 0 0 0.73403 61.2079 91)">1<tspan font-size="10" x="6" y="0">.</tspan><tspan font-size="10" x="7.5" y="0">8</tspan></text><text font-family="Arial,Arial_MSFontService,sans-serif" font-weight="400" font-size="10" transform="matrix(4.49388e-17 -0.73403 0.733907 4.49463e-17 58.7272 114)">(<tspan font-size="10" x="2.72469" y="-1.66839e-16">lin</tspan><tspan font-size="10" x="13.6234" y="-8.34194e-16">)</tspan></text><path d="M416.859 226.777 416.859 169.459M528.956 226.777 528.956 169.459M640.745 226.777 640.745 169.459M752.841 226.777 752.841 169.459" stroke="#000000" stroke-width="0.0733907" stroke-linejoin="round" stroke-dasharray="1.46781 1.46781" fill="none" transform="matrix(1 0 0 1.00017 -236.428 -83.4592)"/><path d="M305.415 224.517 331.931 224.517 331.931 197.648 331.931 170.78 347.6 170.78 347.6 197.648 347.6 224.517 376.656 224.517 376.656 197.648 376.656 170.78 392.332 170.78 392.332 224.517 421.395 224.517 421.395 190.192 421.395 170.78 437.063 170.78 437.063 197.648 437.063 224.517 466.126 224.517 466.126 170.78 481.957 170.78 481.957 197.648 481.957 224.517 511.019 224.517 511.019 197.648 511.019 170.78 526.695 170.78 526.695 224.517 529.147 224.517M529.242 224.517 555.832 224.517 555.832 197.648 555.832 170.78 571.508 170.78 571.508 224.517 600.57 224.517 600.57 170.78 616.239 170.78 616.239 197.648 616.239 224.517 645.302 224.517 645.302 170.78 660.971 170.78 660.971 197.648 660.971 224.517 690.034 224.517 690.034 197.648 690.034 170.78 705.71 170.78 705.71 224.517 734.765 224.517 734.765 197.648 734.765 170.78 750.442 170.78 750.442 224.517 750.596 224.517M750.985 224.517 752.636 224.517" stroke="#0000FF" stroke-width="1.76138" stroke-linejoin="round" fill="none" transform="matrix(1 0 0 1.00017 -236.428 -83.4592)"/><text fill="#0000FF" font-family="Arial,Arial_MSFontService,sans-serif" font-weight="400" font-size="10" transform="matrix(0.733907 0 0 0.73403 13.5186 91)">v(a) <tspan font-size="10" x="20" y="0">c</tspan></text><g clip-path="url(#clip2)"><text fill="#0000FF" font-family="Arial,Arial_MSFontService,sans-serif" font-weight="400" font-size="10" transform="matrix(0.733907 0 0 0.73403 30.4351 91)">h</text></g><g clip-path="url(#clip3)"><text font-family="Arial,Arial_MSFontService,sans-serif" font-weight="400" font-size="10" transform="matrix(0.733907 0 0 0.73403 33.9506 91)">N</text></g><text font-family="Arial,Arial_MSFontService,sans-serif" font-weight="400" font-size="10" transform="matrix(0.733907 0 0 0.73403 39.2494 91)">/<tspan font-size="10" x="3" y="0">A</tspan></text><path d="M244.061 226.307 753.15 226.307M244.061 283.626 753.15 283.626M304.733 226.307 304.733 283.626M753.15 226.307 753.15 283.626" stroke="#000000" stroke-width="0.366953" stroke-linejoin="round" fill="none" transform="matrix(1 0 0 1.00017 -236.428 -83.4592)"/><path d="M303.206 281.82 304.755 281.82M303.837 280.639 304.769 280.639M303.837 279.442 304.769 279.442M303.837 278.253 304.769 278.253M303.837 277.057 304.769 277.057" stroke="#000000" stroke-width="0.366953" stroke-linejoin="round" fill="none" transform="matrix(1 0 0 1.00017 -236.428 -83.4592)"/><path d="M68.2166 198.39 516.612 198.39" stroke="#000000" stroke-width="0.0733907" stroke-linejoin="round" stroke-dasharray="1.46781 1.46781" fill="none" transform="matrix(1 0 0 1.00017 0.11012 0)"/><text font-family="Arial,Arial_MSFontService,sans-serif" font-weight="400" font-size="10" transform="matrix(0.733907 0 0 0.73403 64.3049 200)">0</text><path d="M303.206 275.861 304.755 275.861M303.837 274.672 304.769 274.672M303.837 273.476 304.769 273.476M303.837 272.279 304.769 272.279M303.837 271.083 304.769 271.083" stroke="#000000" stroke-width="0.366953" stroke-linejoin="round" fill="none" transform="matrix(1 0 0 1.00017 -236.428 -83.4592)"/><path d="M68.2166 192.416 516.612 192.416" stroke="#000000" stroke-width="0.0733907" stroke-linejoin="round" stroke-dasharray="1.46781 1.46781" fill="none" transform="matrix(1 0 0 1.00017 0.11012 0)"/><path d="M303.206 269.894 304.755 269.894M303.837 268.698 304.769 268.698M303.837 267.502 304.769 267.502M303.837 266.313 304.769 266.313M303.837 265.116 304.769 265.116" stroke="#000000" stroke-width="0.366953" stroke-linejoin="round" fill="none" transform="matrix(1 0 0 1.00017 -236.428 -83.4592)"/><path d="M68.2166 186.449 516.612 186.449" stroke="#000000" stroke-width="0.0733907" stroke-linejoin="round" stroke-dasharray="1.46781 1.46781" fill="none" transform="matrix(1 0 0 1.00017 0.11012 0)"/><text font-family="Arial,Arial_MSFontService,sans-serif" font-weight="400" font-size="10" transform="matrix(0.733907 0 0 0.73403 60.8923 189)">0<tspan font-size="10" x="6" y="0">.</tspan><tspan font-size="10" x="7.5" y="0">4</tspan></text><path d="M303.206 263.92 304.755 263.92M303.837 262.739 304.769 262.739M303.837 261.535 304.769 261.535M303.837 260.339 304.769 260.339M303.837 259.142 304.769 259.142" stroke="#000000" stroke-width="0.366953" stroke-linejoin="round" fill="none" transform="matrix(1 0 0 1.00017 -236.428 -83.4592)"/><path d="M68.2166 180.475 516.612 180.475" stroke="#000000" stroke-width="0.0733907" stroke-linejoin="round" stroke-dasharray="1.46781 1.46781" fill="none" transform="matrix(1 0 0 1.00017 0.11012 0)"/><text font-family="Arial,Arial_MSFontService,sans-serif" font-weight="400" font-size="10" transform="matrix(0.733907 0 0 0.73403 60.8923 183)">0<tspan font-size="10" x="6" y="0">.</tspan><tspan font-size="10" x="7.5" y="0">6</tspan></text><path d="M303.206 257.954 304.755 257.954M303.837 256.757 304.769 256.757M303.837 255.561 304.769 255.561M303.837 254.365 304.769 254.365M303.837 253.198 304.769 253.198" stroke="#000000" stroke-width="0.366953" stroke-linejoin="round" fill="none" transform="matrix(1 0 0 1.00017 -236.428 -83.4592)"/><path d="M68.2166 174.508 516.612 174.508" stroke="#000000" stroke-width="0.0733907" stroke-linejoin="round" stroke-dasharray="1.46781 1.46781" fill="none" transform="matrix(1 0 0 1.00017 0.11012 0)"/><text font-family="Arial,Arial_MSFontService,sans-serif" font-weight="400" font-size="10" transform="matrix(0.733907 0 0 0.73403 60.8923 177)">0<tspan font-size="10" x="6" y="0">.</tspan><tspan font-size="10" x="7.5" y="0">8</tspan></text><path d="M303.206 251.98 304.755 251.98M303.837 250.783 304.769 250.783M303.837 249.594 304.769 249.594M303.837 248.398 304.769 248.398M303.837 247.202 304.769 247.202" stroke="#000000" stroke-width="0.366953" stroke-linejoin="round" fill="none" transform="matrix(1 0 0 1.00017 -236.428 -83.4592)"/><path d="M68.2166 168.534 516.612 168.534" stroke="#000000" stroke-width="0.0733907" stroke-linejoin="round" stroke-dasharray="1.46781 1.46781" fill="none" transform="matrix(1 0 0 1.00017 0.11012 0)"/><text font-family="Arial,Arial_MSFontService,sans-serif" font-weight="400" font-size="10" transform="matrix(0.733907 0 0 0.73403 64.6132 172)">1</text><path d="M303.206 246.006 304.755 246.006M303.837 244.817 304.769 244.817M303.837 243.657 304.769 243.657M303.837 242.424 304.769 242.424M303.837 241.235 304.769 241.235" stroke="#000000" stroke-width="0.366953" stroke-linejoin="round" fill="none" transform="matrix(1 0 0 1.00017 -236.428 -83.4592)"/><path d="M68.2166 162.56 516.612 162.56" stroke="#000000" stroke-width="0.0733907" stroke-linejoin="round" stroke-dasharray="1.46781 1.46781" fill="none" transform="matrix(1 0 0 1.00017 0.11012 0)"/><text font-family="Arial,Arial_MSFontService,sans-serif" font-weight="400" font-size="10" transform="matrix(0.733907 0 0 0.73403 61.2079 165)">1<tspan font-size="10" x="6" y="0">.</tspan><tspan font-size="10" x="7.5" y="0">2</tspan></text><path d="M303.206 240.039 304.755 240.039M303.837 238.843 304.769 238.843M303.837 237.646 304.769 237.646M303.837 236.457 304.769 236.457M303.837 235.261 304.769 235.261" stroke="#000000" stroke-width="0.366953" stroke-linejoin="round" fill="none" transform="matrix(1 0 0 1.00017 -236.428 -83.4592)"/><path d="M68.2166 156.594 516.612 156.594" stroke="#000000" stroke-width="0.0733907" stroke-linejoin="round" stroke-dasharray="1.46781 1.46781" fill="none" transform="matrix(1 0 0 1.00017 0.11012 0)"/><text font-family="Arial,Arial_MSFontService,sans-serif" font-weight="400" font-size="10" transform="matrix(0.733907 0 0 0.73403 61.2079 159)">1<tspan font-size="10" x="6" y="0">.</tspan><tspan font-size="10" x="7.5" y="0">4</tspan></text><path d="M303.206 234.065 304.755 234.065M303.837 232.876 304.769 232.876M303.837 231.68 304.769 231.68M303.837 230.483 304.769 230.483M303.837 229.287 304.769 229.287" stroke="#000000" stroke-width="0.366953" stroke-linejoin="round" fill="none" transform="matrix(1 0 0 1.00017 -236.428 -83.4592)"/><path d="M68.2166 150.62 516.612 150.62" stroke="#000000" stroke-width="0.0733907" stroke-linejoin="round" stroke-dasharray="1.46781 1.46781" fill="none" transform="matrix(1 0 0 1.00017 0.11012 0)"/><text font-family="Arial,Arial_MSFontService,sans-serif" font-weight="400" font-size="10" transform="matrix(0.733907 0 0 0.73403 61.2079 154)">1<tspan font-size="10" x="6" y="0">.</tspan><tspan font-size="10" x="7.5" y="0">6</tspan></text><path d="M66.6681 144.653 68.2166 144.653" stroke="#000000" stroke-width="0.366953" stroke-linejoin="round" fill="none" transform="matrix(1 0 0 1.00017 0.11012 0)"/><path d="M68.2166 144.653 516.612 144.653" stroke="#000000" stroke-width="0.0733907" stroke-linejoin="round" stroke-dasharray="1.46781 1.46781" fill="none" transform="matrix(1 0 0 1.00017 0.11012 0)"/><text font-family="Arial,Arial_MSFontService,sans-serif" font-weight="400" font-size="10" transform="matrix(0.733907 0 0 0.73403 61.2079 148)">1<tspan font-size="10" x="6" y="0">.</tspan><tspan font-size="10" x="7.5" y="0">8</tspan></text><text font-family="Arial,Arial_MSFontService,sans-serif" font-weight="400" font-size="10" transform="matrix(4.49388e-17 -0.73403 0.733907 4.49463e-17 58.7272 172)">(<tspan font-size="10" x="4.08703" y="-2.50258e-16">lin</tspan><tspan font-size="10" x="14.9858" y="-9.17613e-16">)</tspan></text><path d="M416.859 284.073 416.859 226.777M528.963 284.095 528.963 226.777M640.752 284.095 640.752 226.777M752.849 284.095 752.849 226.777" stroke="#000000" stroke-width="0.0733907" stroke-linejoin="round" stroke-dasharray="1.46781 1.46781" fill="none" transform="matrix(1 0 0 1.00017 -236.428 -83.4592)"/><path d="M305.415 281.82 331.931 281.82 331.931 254.952 331.931 228.098 347.6 228.098 347.6 254.967 347.6 281.82 376.656 281.82 376.656 254.952 376.656 228.098 392.332 228.098 392.332 281.82 421.395 281.82 421.395 247.51 421.395 228.098 437.063 228.098 437.063 254.967 437.063 281.82 466.126 281.82 466.126 228.098 481.957 228.098 481.957 254.967 481.957 281.82 511.019 281.82 511.019 254.952 511.019 228.098 526.695 228.098 526.695 281.82 529.147 281.82M529.242 281.82 555.832 281.82 555.832 254.952 555.832 228.098 571.508 228.098 571.508 281.82 600.57 281.82 600.57 228.098 616.239 228.098 616.239 254.967 616.239 281.82 645.302 281.82 645.302 228.098 660.971 228.098 660.971 254.967 660.971 281.82 690.034 281.82 690.034 254.952 690.034 228.098 705.71 228.098 705.71 281.82 734.765 281.82 734.765 254.952 734.765 228.098 750.442 228.098 750.442 281.82 750.596 281.82M750.985 281.82 752.636 281.82" stroke="#FF0000" stroke-width="1.76138" stroke-linejoin="round" fill="none" transform="matrix(1 0 0 1.00017 -236.428 -83.4592)"/><text fill="#FF0000" font-family="Arial,Arial_MSFontService,sans-serif" font-weight="400" font-size="10" transform="matrix(0.733907 0 0 0.73403 13.5186 149)">v(b) <tspan font-size="10" x="20" y="0">c</tspan></text><g clip-path="url(#clip4)"><text fill="#FF0000" font-family="Arial,Arial_MSFontService,sans-serif" font-weight="400" font-size="10" transform="matrix(0.733907 0 0 0.73403 30.8388 149)">h</text></g><g clip-path="url(#clip5)"><text font-family="Arial,Arial_MSFontService,sans-serif" font-weight="400" font-size="10" transform="matrix(0.733907 0 0 0.73403 33.9506 149)">N</text></g><text font-family="Arial,Arial_MSFontService,sans-serif" font-weight="400" font-size="10" transform="matrix(0.733907 0 0 0.73403 39.2494 149)">/<tspan font-size="10" x="3" y="0">A</tspan></text><path d="M244.061 283.626 753.15 283.626M244.061 340.944 753.15 340.944M304.733 283.626 304.733 340.944M753.15 283.626 753.15 340.944" stroke="#000000" stroke-width="0.366953" stroke-linejoin="round" fill="none" transform="matrix(1 0 0 1.00017 -236.428 -83.4592)"/><path d="M303.206 339.153 304.755 339.153M303.837 337.957 304.769 337.957M303.837 336.768 304.769 336.768M303.837 335.571 304.769 335.571M303.837 334.375 304.769 334.375" stroke="#000000" stroke-width="0.366953" stroke-linejoin="round" fill="none" transform="matrix(1 0 0 1.00017 -236.428 -83.4592)"/><path d="M68.2166 255.708 516.612 255.708" stroke="#000000" stroke-width="0.0733907" stroke-linejoin="round" stroke-dasharray="1.46781 1.46781" fill="none" transform="matrix(1 0 0 1.00017 0.11012 0)"/><text font-family="Arial,Arial_MSFontService,sans-serif" font-weight="400" font-size="10" transform="matrix(0.733907 0 0 0.73403 64.3049 257)">0</text><path d="M303.206 333.194 304.755 333.194M303.837 331.99 304.769 331.99M303.837 330.794 304.769 330.794M303.837 329.598 304.769 329.598M303.837 328.409 304.769 328.409" stroke="#000000" stroke-width="0.366953" stroke-linejoin="round" fill="none" transform="matrix(1 0 0 1.00017 -236.428 -83.4592)"/><path d="M68.2166 249.734 516.612 249.734" stroke="#000000" stroke-width="0.0733907" stroke-linejoin="round" stroke-dasharray="1.46781 1.46781" fill="none" transform="matrix(1 0 0 1.00017 0.11012 0)"/><path d="M303.206 327.212 304.755 327.212M303.837 326.016 304.769 326.016M303.837 324.82 304.769 324.82M303.837 323.653 304.769 323.653M303.837 322.435 304.769 322.435" stroke="#000000" stroke-width="0.366953" stroke-linejoin="round" fill="none" transform="matrix(1 0 0 1.00017 -236.428 -83.4592)"/><path d="M68.2166 243.767 516.612 243.767" stroke="#000000" stroke-width="0.0733907" stroke-linejoin="round" stroke-dasharray="1.46781 1.46781" fill="none" transform="matrix(1 0 0 1.00017 0.11012 0)"/><text font-family="Arial,Arial_MSFontService,sans-serif" font-weight="400" font-size="10" transform="matrix(0.733907 0 0 0.73403 60.8923 247)">0<tspan font-size="10" x="6" y="0">.</tspan><tspan font-size="10" x="7.5" y="0">4</tspan></text><path d="M303.206 321.238 304.755 321.238M303.837 320.049 304.769 320.049M303.837 318.853 304.769 318.853M303.837 317.657 304.769 317.657M303.837 316.461 304.769 316.461" stroke="#000000" stroke-width="0.366953" stroke-linejoin="round" fill="none" transform="matrix(1 0 0 1.00017 -236.428 -83.4592)"/><path d="M68.2166 237.793 516.612 237.793" stroke="#000000" stroke-width="0.0733907" stroke-linejoin="round" stroke-dasharray="1.46781 1.46781" fill="none" transform="matrix(1 0 0 1.00017 0.11012 0)"/><text font-family="Arial,Arial_MSFontService,sans-serif" font-weight="400" font-size="10" transform="matrix(0.733907 0 0 0.73403 60.8923 241)">0<tspan font-size="10" x="6" y="0">.</tspan><tspan font-size="10" x="7.5" y="0">6</tspan></text><path d="M303.206 315.272 304.755 315.272M303.837 314.112 304.769 314.112M303.837 312.879 304.769 312.879M303.837 311.69 304.769 311.69M303.837 310.494 304.769 310.494" stroke="#000000" stroke-width="0.366953" stroke-linejoin="round" fill="none" transform="matrix(1 0 0 1.00017 -236.428 -83.4592)"/><path d="M68.2166 231.826 516.612 231.826" stroke="#000000" stroke-width="0.0733907" stroke-linejoin="round" stroke-dasharray="1.46781 1.46781" fill="none" transform="matrix(1 0 0 1.00017 0.11012 0)"/><text font-family="Arial,Arial_MSFontService,sans-serif" font-weight="400" font-size="10" transform="matrix(0.733907 0 0 0.73403 60.8923 235)">0<tspan font-size="10" x="6" y="0">.</tspan><tspan font-size="10" x="7.5" y="0">8</tspan></text><path d="M303.206 309.298 304.755 309.298M303.837 308.101 304.769 308.101M303.837 306.912 304.769 306.912M303.837 305.716 304.769 305.716M303.837 304.52 304.769 304.52" stroke="#000000" stroke-width="0.366953" stroke-linejoin="round" fill="none" transform="matrix(1 0 0 1.00017 -236.428 -83.4592)"/><path d="M68.2166 225.852 516.612 225.852" stroke="#000000" stroke-width="0.0733907" stroke-linejoin="round" stroke-dasharray="1.46781 1.46781" fill="none" transform="matrix(1 0 0 1.00017 0.11012 0)"/><text font-family="Arial,Arial_MSFontService,sans-serif" font-weight="400" font-size="10" transform="matrix(0.733907 0 0 0.73403 64.6132 229)">1</text><path d="M303.206 303.331 304.755 303.331M303.837 302.135 304.769 302.135M303.837 300.938 304.769 300.938M303.837 299.742 304.769 299.742M303.837 298.553 304.769 298.553" stroke="#000000" stroke-width="0.366953" stroke-linejoin="round" fill="none" transform="matrix(1 0 0 1.00017 -236.428 -83.4592)"/><path d="M68.2166 219.886 516.612 219.886" stroke="#000000" stroke-width="0.0733907" stroke-linejoin="round" stroke-dasharray="1.46781 1.46781" fill="none" transform="matrix(1 0 0 1.00017 0.11012 0)"/><text font-family="Arial,Arial_MSFontService,sans-serif" font-weight="400" font-size="10" transform="matrix(0.733907 0 0 0.73403 61.2079 223)">1<tspan font-size="10" x="6" y="0">.</tspan><tspan font-size="10" x="7.5" y="0">2</tspan></text><path d="M303.206 297.357 304.755 297.357M303.837 296.161 304.769 296.161M303.837 294.972 304.769 294.972M303.837 293.776 304.769 293.776M303.837 292.579 304.769 292.579" stroke="#000000" stroke-width="0.366953" stroke-linejoin="round" fill="none" transform="matrix(1 0 0 1.00017 -236.428 -83.4592)"/><path d="M68.2166 213.912 516.612 213.912" stroke="#000000" stroke-width="0.0733907" stroke-linejoin="round" stroke-dasharray="1.46781 1.46781" fill="none" transform="matrix(1 0 0 1.00017 0.11012 0)"/><text font-family="Arial,Arial_MSFontService,sans-serif" font-weight="400" font-size="10" transform="matrix(0.733907 0 0 0.73403 61.2079 217)">1<tspan font-size="10" x="6" y="0">.</tspan><tspan font-size="10" x="7.5" y="0">4</tspan></text><path d="M303.206 291.361 304.755 291.361M303.837 290.194 304.769 290.194M303.837 288.998 304.769 288.998M303.837 287.802 304.769 287.802M303.837 286.613 304.769 286.613" stroke="#000000" stroke-width="0.366953" stroke-linejoin="round" fill="none" transform="matrix(1 0 0 1.00017 -236.428 -83.4592)"/><path d="M68.2166 207.938 516.612 207.938" stroke="#000000" stroke-width="0.0733907" stroke-linejoin="round" stroke-dasharray="1.46781 1.46781" fill="none" transform="matrix(1 0 0 1.00017 0.11012 0)"/><text font-family="Arial,Arial_MSFontService,sans-serif" font-weight="400" font-size="10" transform="matrix(0.733907 0 0 0.73403 61.2079 211)">1<tspan font-size="10" x="6" y="0">.</tspan><tspan font-size="10" x="7.5" y="0">6</tspan></text><path d="M66.6681 201.971 68.2166 201.971" stroke="#000000" stroke-width="0.366953" stroke-linejoin="round" fill="none" transform="matrix(1 0 0 1.00017 0.11012 0)"/><path d="M68.2166 201.971 516.612 201.971" stroke="#000000" stroke-width="0.0733907" stroke-linejoin="round" stroke-dasharray="1.46781 1.46781" fill="none" transform="matrix(1 0 0 1.00017 0.11012 0)"/><text font-family="Arial,Arial_MSFontService,sans-serif" font-weight="400" font-size="10" transform="matrix(0.733907 0 0 0.73403 61.2079 206)">1<tspan font-size="10" x="6" y="0">.</tspan><tspan font-size="10" x="7.5" y="0">8</tspan></text><text font-family="Arial,Arial_MSFontService,sans-serif" font-weight="400" font-size="10" transform="matrix(4.49388e-17 -0.73403 0.733907 4.49463e-17 58.7272 229)">(<tspan font-size="10" x="2.72469" y="-1.66839e-16">lin</tspan><tspan font-size="10" x="13.6234" y="-8.34194e-16">)</tspan></text><path d="M416.859 341.391 416.859 284.073M528.963 341.391 528.963 284.073M640.752 341.391 640.752 284.073M752.849 341.391 752.849 284.073" stroke="#000000" stroke-width="0.0733907" stroke-linejoin="round" stroke-dasharray="1.46781 1.46781" fill="none" transform="matrix(1 0 0 1.00017 -236.428 -83.4592)"/><path d="M305.415 339.153 331.931 339.153 331.931 312.285 331.931 285.416 347.6 285.416 347.6 312.285 347.6 339.153 376.656 339.153 376.656 312.285 376.656 285.416 392.332 285.416 392.332 339.153 421.395 339.153 421.395 304.835 421.395 285.416 437.063 285.416 437.063 312.285 437.063 339.153 466.126 339.153 466.126 285.416 481.957 285.416 481.957 312.285 481.957 339.153 511.019 339.153 511.019 312.285 511.019 285.416 526.695 285.416 526.695 339.153 529.147 339.153M529.242 339.153 555.832 339.153 555.832 312.285 555.832 285.416 571.508 285.416 571.508 339.153 600.57 339.153 600.57 285.416 616.239 285.416 616.239 312.285 616.239 339.153 645.302 339.153 645.302 285.416 660.971 285.416 660.971 312.285 660.971 339.153 690.034 339.153 690.034 312.285 690.034 285.416 705.71 285.416 705.71 339.153 734.765 339.153 734.765 312.285 734.765 285.416 750.442 285.416 750.442 339.153 750.596 339.153M750.985 339.153 752.636 339.153" stroke="#8CBA8C" stroke-width="1.76138" stroke-linejoin="round" fill="none" transform="matrix(1 0 0 1.00017 -236.428 -83.4592)"/><text fill="#8CBA8C" font-family="Arial,Arial_MSFontService,sans-serif" font-weight="400" font-size="10" transform="matrix(0.733907 0 0 0.73403 13.5186 206)">v(c) c</text><g clip-path="url(#clip6)"><text fill="#8CBA8C" font-family="Arial,Arial_MSFontService,sans-serif" font-weight="400" font-size="10" transform="matrix(0.733907 0 0 0.73403 30.4351 206)">h</text></g><g clip-path="url(#clip7)"><text font-family="Arial,Arial_MSFontService,sans-serif" font-weight="400" font-size="10" transform="matrix(0.733907 0 0 0.73403 33.9506 206)">N</text></g><text font-family="Arial,Arial_MSFontService,sans-serif" font-weight="400" font-size="10" transform="matrix(0.733907 0 0 0.73403 39.2494 206)">/<tspan font-size="10" x="3" y="0">A</tspan></text><path d="M244.061 340.944 753.15 340.944M244.061 398.262 753.15 398.262M304.733 340.944 304.733 398.262M753.15 340.944 753.15 398.262" stroke="#000000" stroke-width="0.366953" stroke-linejoin="round" fill="none" transform="matrix(1 0 0 1.00017 -236.428 -83.4592)"/><path d="M303.206 396.471 304.755 396.471M303.837 395.275 304.769 395.275M303.837 394.108 304.769 394.108M303.837 392.89 304.769 392.89M303.837 391.693 304.769 391.693" stroke="#000000" stroke-width="0.366953" stroke-linejoin="round" fill="none" transform="matrix(1 0 0 1.00017 -236.428 -83.4592)"/><path d="M68.2166 313.026 516.612 313.026" stroke="#000000" stroke-width="0.0733907" stroke-linejoin="round" stroke-dasharray="1.46781 1.46781" fill="none" transform="matrix(1 0 0 1.00017 0.11012 0)"/><text font-family="Arial,Arial_MSFontService,sans-serif" font-weight="400" font-size="10" transform="matrix(0.733907 0 0 0.73403 64.3049 314)">0</text><path d="M303.206 390.504 304.755 390.504M303.837 389.308 304.769 389.308M303.837 388.112 304.769 388.112M303.837 386.916 304.769 386.916M303.837 385.727 304.769 385.727" stroke="#000000" stroke-width="0.366953" stroke-linejoin="round" fill="none" transform="matrix(1 0 0 1.00017 -236.428 -83.4592)"/><path d="M68.2166 307.059 516.612 307.059" stroke="#000000" stroke-width="0.0733907" stroke-linejoin="round" stroke-dasharray="1.46781 1.46781" fill="none" transform="matrix(1 0 0 1.00017 0.11012 0)"/><path d="M303.206 384.567 304.755 384.567M303.837 383.334 304.769 383.334M303.837 382.145 304.769 382.145M303.837 380.949 304.769 380.949M303.837 379.753 304.769 379.753" stroke="#000000" stroke-width="0.366953" stroke-linejoin="round" fill="none" transform="matrix(1 0 0 1.00017 -236.428 -83.4592)"/><path d="M68.2166 301.085 516.612 301.085" stroke="#000000" stroke-width="0.0733907" stroke-linejoin="round" stroke-dasharray="1.46781 1.46781" fill="none" transform="matrix(1 0 0 1.00017 0.11012 0)"/><text font-family="Arial,Arial_MSFontService,sans-serif" font-weight="400" font-size="10" transform="matrix(0.733907 0 0 0.73403 60.8923 304)">0<tspan font-size="10" x="6" y="0">.</tspan><tspan font-size="10" x="7.5" y="0">4</tspan></text><path d="M303.206 378.556 304.755 378.556M303.837 377.367 304.769 377.367M303.837 376.171 304.769 376.171M303.837 374.975 304.769 374.975M303.837 373.786 304.769 373.786" stroke="#000000" stroke-width="0.366953" stroke-linejoin="round" fill="none" transform="matrix(1 0 0 1.00017 -236.428 -83.4592)"/><path d="M68.2166 295.111 516.612 295.111" stroke="#000000" stroke-width="0.0733907" stroke-linejoin="round" stroke-dasharray="1.46781 1.46781" fill="none" transform="matrix(1 0 0 1.00017 0.11012 0)"/><text font-family="Arial,Arial_MSFontService,sans-serif" font-weight="400" font-size="10" transform="matrix(0.733907 0 0 0.73403 60.8923 298)">0<tspan font-size="10" x="6" y="0">.</tspan><tspan font-size="10" x="7.5" y="0">6</tspan></text><path d="M303.206 372.59 304.755 372.59M303.837 371.393 304.769 371.393M303.837 370.197 304.769 370.197M303.837 369.008 304.769 369.008M303.837 367.812 304.769 367.812" stroke="#000000" stroke-width="0.366953" stroke-linejoin="round" fill="none" transform="matrix(1 0 0 1.00017 -236.428 -83.4592)"/><path d="M68.2166 289.145 516.612 289.145" stroke="#000000" stroke-width="0.0733907" stroke-linejoin="round" stroke-dasharray="1.46781 1.46781" fill="none" transform="matrix(1 0 0 1.00017 0.11012 0)"/><text font-family="Arial,Arial_MSFontService,sans-serif" font-weight="400" font-size="10" transform="matrix(0.733907 0 0 0.73403 60.8923 292)">0<tspan font-size="10" x="6" y="0">.</tspan><tspan font-size="10" x="7.5" y="0">8</tspan></text><path d="M303.206 366.616 304.755 366.616M303.837 365.427 304.769 365.427M303.837 364.231 304.769 364.231M303.837 363.034 304.769 363.034M303.837 361.816 304.769 361.816" stroke="#000000" stroke-width="0.366953" stroke-linejoin="round" fill="none" transform="matrix(1 0 0 1.00017 -236.428 -83.4592)"/><path d="M68.2166 283.171 516.612 283.171" stroke="#000000" stroke-width="0.0733907" stroke-linejoin="round" stroke-dasharray="1.46781 1.46781" fill="none" transform="matrix(1 0 0 1.00017 0.11012 0)"/><text font-family="Arial,Arial_MSFontService,sans-serif" font-weight="400" font-size="10" transform="matrix(0.733907 0 0 0.73403 64.6132 286)">1</text><path d="M303.206 360.649 304.755 360.649M303.837 359.453 304.769 359.453M303.837 358.257 304.769 358.257M303.837 357.068 304.769 357.068M303.837 355.871 304.769 355.871" stroke="#000000" stroke-width="0.366953" stroke-linejoin="round" fill="none" transform="matrix(1 0 0 1.00017 -236.428 -83.4592)"/><path d="M68.2166 277.204 516.612 277.204" stroke="#000000" stroke-width="0.0733907" stroke-linejoin="round" stroke-dasharray="1.46781 1.46781" fill="none" transform="matrix(1 0 0 1.00017 0.11012 0)"/><text font-family="Arial,Arial_MSFontService,sans-serif" font-weight="400" font-size="10" transform="matrix(0.733907 0 0 0.73403 61.2079 280)">1<tspan font-size="10" x="6" y="0">.</tspan><tspan font-size="10" x="7.5" y="0">2</tspan></text><path d="M303.206 354.675 304.755 354.675M303.837 353.479 304.769 353.479M303.837 352.275 304.769 352.275M303.837 351.094 304.769 351.094M303.837 349.897 304.769 349.897" stroke="#000000" stroke-width="0.366953" stroke-linejoin="round" fill="none" transform="matrix(1 0 0 1.00017 -236.428 -83.4592)"/><path d="M68.2166 271.23 516.612 271.23" stroke="#000000" stroke-width="0.0733907" stroke-linejoin="round" stroke-dasharray="1.46781 1.46781" fill="none" transform="matrix(1 0 0 1.00017 0.11012 0)"/><text font-family="Arial,Arial_MSFontService,sans-serif" font-weight="400" font-size="10" transform="matrix(0.733907 0 0 0.73403 61.2079 274)">1<tspan font-size="10" x="6" y="0">.</tspan><tspan font-size="10" x="7.5" y="0">4</tspan></text><path d="M303.206 348.708 304.755 348.708M303.837 347.512 304.769 347.512M303.837 346.316 304.769 346.316M303.837 345.127 304.769 345.127M303.837 343.931 304.769 343.931" stroke="#000000" stroke-width="0.366953" stroke-linejoin="round" fill="none" transform="matrix(1 0 0 1.00017 -236.428 -83.4592)"/><path d="M68.2166 265.263 516.612 265.263" stroke="#000000" stroke-width="0.0733907" stroke-linejoin="round" stroke-dasharray="1.46781 1.46781" fill="none" transform="matrix(1 0 0 1.00017 0.11012 0)"/><text font-family="Arial,Arial_MSFontService,sans-serif" font-weight="400" font-size="10" transform="matrix(0.733907 0 0 0.73403 61.2079 268)">1<tspan font-size="10" x="6" y="0">.</tspan><tspan font-size="10" x="7.5" y="0">6</tspan></text><path d="M66.6681 259.289 68.2166 259.289" stroke="#000000" stroke-width="0.366953" stroke-linejoin="round" fill="none" transform="matrix(1 0 0 1.00017 0.11012 0)"/><path d="M68.2166 259.289 516.612 259.289" stroke="#000000" stroke-width="0.0733907" stroke-linejoin="round" stroke-dasharray="1.46781 1.46781" fill="none" transform="matrix(1 0 0 1.00017 0.11012 0)"/><text font-family="Arial,Arial_MSFontService,sans-serif" font-weight="400" font-size="10" transform="matrix(0.733907 0 0 0.73403 61.2079 263)">1<tspan font-size="10" x="6" y="0">.</tspan><tspan font-size="10" x="7.5" y="0">8</tspan></text><text font-family="Arial,Arial_MSFontService,sans-serif" font-weight="400" font-size="10" transform="matrix(4.49388e-17 -0.73403 0.733907 4.49463e-17 58.7272 286)">(<tspan font-size="10" x="2.72469" y="-1.66839e-16">lin</tspan><tspan font-size="10" x="13.6234" y="-8.34194e-16">)</tspan></text><path d="M416.859 398.71 416.859 341.391M528.963 398.71 528.963 341.391M640.752 398.71 640.752 341.391M752.849 398.71 752.849 341.391" stroke="#000000" stroke-width="0.0733907" stroke-linejoin="round" stroke-dasharray="1.46781 1.46781" fill="none" transform="matrix(1 0 0 1.00017 -236.428 -83.4592)"/><path d="M305.415 396.471 343.123 396.471 343.123 369.603 343.123 342.734 347.6 342.734 347.6 369.603 347.6 396.471 387.855 396.471 387.855 342.734 392.332 342.734 392.332 396.471 432.587 396.471 432.587 342.734 437.063 342.734 437.063 369.603 437.063 396.471 477.318 396.471 477.318 342.734 481.795 342.734 481.795 369.603 481.795 396.471 522.05 396.471 522.05 379.011M522.05 379.011 522.05 342.734 526.534 342.734 526.534 396.471 567.016 396.471 567.016 342.734 571.493 342.734 571.493 396.471 611.748 396.471 611.748 342.734 616.225 342.734 616.225 369.603 616.225 396.471 656.48 396.471 656.48 342.734 660.956 342.734 660.956 369.603 660.956 396.471 701.211 396.471 701.211 342.734 705.695 342.734 705.695 396.471 708.22 396.471M708.528 396.471 746.104 396.471 746.104 342.734 750.581 342.734 750.581 396.471 752.783 396.471" stroke="#00FFFF" stroke-width="1.76138" stroke-linejoin="round" fill="none" transform="matrix(1 0 0 1.00017 -236.428 -83.4592)"/><text fill="#00FFFF" font-family="Arial,Arial_MSFontService,sans-serif" font-weight="400" font-size="10" transform="matrix(0.733907 0 0 0.73403 13.5186 263)">v(d) <tspan font-size="10" x="20" y="0">c</tspan></text><g clip-path="url(#clip8)"><text fill="#00FFFF" font-family="Arial,Arial_MSFontService,sans-serif" font-weight="400" font-size="10" transform="matrix(0.733907 0 0 0.73403 30.8388 263)">h</text></g><g clip-path="url(#clip9)"><text font-family="Arial,Arial_MSFontService,sans-serif" font-weight="400" font-size="10" transform="matrix(0.733907 0 0 0.73403 33.9506 263)">N</text></g><text font-family="Arial,Arial_MSFontService,sans-serif" font-weight="400" font-size="10" transform="matrix(0.733907 0 0 0.73403 39.2494 263)">/<tspan font-size="10" x="3" y="0">A</tspan></text><path d="M244.061 398.262 753.15 398.262M244.061 455.58 753.15 455.58M304.733 398.262 304.733 455.58M753.15 398.262 753.15 455.58" stroke="#000000" stroke-width="0.366953" stroke-linejoin="round" fill="none" transform="matrix(1 0 0 1.00017 -236.428 -83.4592)"/><path d="M303.206 443.874 304.755 443.874M303.837 446.215 304.769 446.215M303.837 448.556 304.769 448.556M303.837 450.89 304.769 450.89M303.837 453.231 304.769 453.231M303.837 441.533 304.769 441.533M303.837 439.192 304.769 439.192M303.837 436.858 304.769 436.858M303.837 434.517 304.769 434.517" stroke="#000000" stroke-width="0.366953" stroke-linejoin="round" fill="none" transform="matrix(1 0 0 1.00017 -236.428 -83.4592)"/><path d="M68.2166 360.429 516.612 360.429" stroke="#000000" stroke-width="0.0733907" stroke-linejoin="round" stroke-dasharray="1.46781 1.46781" fill="none" transform="matrix(1 0 0 1.00017 0.11012 0)"/><text font-family="Arial,Arial_MSFontService,sans-serif" font-weight="400" font-size="10" transform="matrix(0.733907 0 0 0.73403 64.3049 363)">0</text><path d="M303.206 432.176 304.755 432.176M303.837 429.834 304.769 429.834M303.837 427.501 304.769 427.501M303.837 425.159 304.769 425.159M303.837 422.818 304.769 422.818" stroke="#000000" stroke-width="0.366953" stroke-linejoin="round" fill="none" transform="matrix(1 0 0 1.00017 -236.428 -83.4592)"/><path d="M68.2166 348.73 516.612 348.73" stroke="#000000" stroke-width="0.0733907" stroke-linejoin="round" stroke-dasharray="1.46781 1.46781" fill="none" transform="matrix(1 0 0 1.00017 0.11012 0)"/><text font-family="Arial,Arial_MSFontService,sans-serif" font-weight="400" font-size="10" transform="matrix(0.733907 0 0 0.73403 60.8923 352)">0<tspan font-size="10" x="6" y="0">.</tspan><tspan font-size="10" x="7.5" y="0">5</tspan></text><path d="M303.206 420.477 304.755 420.477M303.837 418.136 304.769 418.136M303.837 415.802 304.769 415.802M303.837 413.461 304.769 413.461M303.837 411.12 304.769 411.12" stroke="#000000" stroke-width="0.366953" stroke-linejoin="round" fill="none" transform="matrix(1 0 0 1.00017 -236.428 -83.4592)"/><path d="M68.2166 337.032 516.612 337.032" stroke="#000000" stroke-width="0.0733907" stroke-linejoin="round" stroke-dasharray="1.46781 1.46781" fill="none" transform="matrix(1 0 0 1.00017 0.11012 0)"/><text font-family="Arial,Arial_MSFontService,sans-serif" font-weight="400" font-size="10" transform="matrix(0.733907 0 0 0.73403 64.6132 340)">1</text><path d="M303.206 408.786 304.755 408.786M303.837 406.445 304.769 406.445M303.837 404.104 304.769 404.104M303.837 401.763 304.769 401.763" stroke="#000000" stroke-width="0.366953" stroke-linejoin="round" fill="none" transform="matrix(1 0 0 1.00017 -236.428 -83.4592)"/><path d="M68.2166 325.333 516.612 325.333" stroke="#000000" stroke-width="0.0733907" stroke-linejoin="round" stroke-dasharray="1.46781 1.46781" fill="none" transform="matrix(1 0 0 1.00017 0.11012 0)"/><text font-family="Arial,Arial_MSFontService,sans-serif" font-weight="400" font-size="10" transform="matrix(0.733907 0 0 0.73403 61.2079 328)">1<tspan font-size="10" x="6" y="0">.</tspan><tspan font-size="10" x="7.5" y="0">5</tspan></text><text font-family="Arial,Arial_MSFontService,sans-serif" font-weight="400" font-size="10" transform="matrix(4.49388e-17 -0.73403 0.733907 4.49463e-17 58.7272 344)">(<tspan font-size="10" x="4.08703" y="-2.50258e-16">lin</tspan><tspan font-size="10" x="14.9858" y="-9.17613e-16">)</tspan></text><path d="M416.859 456.028 416.859 398.71M528.963 456.028 528.963 398.71M640.752 456.028 640.752 398.71M752.849 456.028 752.849 398.71" stroke="#000000" stroke-width="0.0733907" stroke-linejoin="round" stroke-dasharray="1.46781 1.46781" fill="none" transform="matrix(1 0 0 1.00017 -236.428 -83.4592)"/><path d="M305.415 401.763 327.432 401.763 327.432 401.711 327.55 401.674 327.594 401.733 327.638 401.733 327.865 401.733 331.88 401.733 331.88 400.111 331.88 402.915 331.88 402.276 331.88 402.115 331.88 402.005 331.88 401.946 331.88 401.895 331.88 401.851 332.027 401.799 332.298 401.799 332.849 401.799 342.896 401.799 342.896 405.469 342.896 443.859 343.351 443.911 347.329 443.911 347.329 448.314 347.329 453.797 347.329 453.797 347.329 453.708 347.329 453.569 347.365 453.415 347.424 453.239 347.497 453.026 347.63 452.74 347.835 452.424 348.114 452.116 348.481 451.837 348.98 451.558 349.64 451.294 349.64 451.375 349.64 451.375 349.677 449.173 349.677 446.237 349.677 441.327 349.677 435.133 349.677 425.981 349.677 401.858 349.677 401.799 349.817 401.799 371.65 401.799 371.65 401.748 371.738 401.748 371.738 401.748 371.782 401.799 371.827 401.799 372.37 401.799 376.039 401.799 376.039 403.795 376.039 404.573 376.039 403.062 376.039 402.181 376.039 402.049 376.039 401.961 376.039 401.902 376.039 401.858 376.083 401.821 376.245 401.777 376.553 401.777 387.084 401.777 387.084 443.837 387.084 443.889 391.488 443.889 391.488 453.635 391.488 453.635 391.488 453.598 391.488 453.481 391.525 453.334 391.583 453.165 391.657 452.975 391.774 452.725 391.972 452.424 392.251 452.116 392.633 451.83 393.124 451.551 393.8 451.287 393.8 451.367 393.866 449.166 393.866 446.23 393.866 441.327 393.866 435.126 393.866 425.974 393.866 401.902 393.866 401.902 393.866 401.843 394.005 401.843M394.328 401.843 417.006 401.843 417.006 401.792 417.123 401.755 417.175 401.807 417.175 401.807 417.718 401.807 421.387 401.807 421.387 405.116 421.387 410.79 421.387 404.551 421.387 403.04 421.387 402.489 421.387 402.218 421.387 402.085 421.387 401.997 421.387 401.939 421.387 401.895 421.424 401.858 421.585 401.814 421.894 401.814 432.425 401.814 432.425 401.858 432.425 443.874 432.535 443.925 436.858 443.925 436.858 448.329 436.858 453.642 436.858 453.642 436.858 453.606 436.858 453.488 436.895 453.342 436.946 453.173 437.019 452.982 437.137 452.732 437.335 452.431 437.614 452.123 437.996 451.837 438.495 451.558 439.162 451.294 439.162 451.375 439.228 449.173 439.228 446.237 439.228 441.335 439.228 435.133 439.228 425.981 439.228 401.909 439.228 401.909 439.228 401.851 439.507 401.851 461.209 401.851 461.209 401.799 461.326 401.763 461.378 401.814 461.378 401.814 461.378 401.814 461.928 401.814 465.598 401.814 465.598 403.076 465.598 402.526 465.598 402.122 465.598 402.034 465.598 401.975 465.598 401.931 465.642 401.895 465.708 401.895 465.796 401.895 466.104 401.895 476.636 401.895 476.636 401.939 476.636 443.955 476.849 444.006 481.068 444.006 481.068 448.41 481.068 453.723 481.068 453.723 481.113 453.686 481.113 453.569 481.113 453.422 481.164 453.253 481.237 453.063 481.355 452.813 481.553 452.512 481.839 452.204 482.213 451.918 482.712 451.639 483.388 451.375 483.388 451.455 483.388 451.455 483.388 449.254 483.388 446.318 483.388 441.416 483.388 435.214 483.388 426.062 483.388 404.045M483.388 404.045 483.388 401.983 483.388 401.924 483.659 401.924 505.361 401.924 505.361 401.873 505.478 401.836 505.522 401.887 505.566 401.887 505.566 401.887 509.779 401.887 509.779 403.884 509.779 403.15 509.779 402.599 509.779 402.181 509.779 402.049 509.779 401.961 509.779 401.902 509.779 401.858 509.823 401.821 509.889 401.821 509.984 401.821 510.542 401.821 520.817 401.821 520.817 401.865 520.817 443.881 521.037 443.933 525.257 443.933 525.257 453.679 525.257 453.679 525.257 453.642 525.257 453.525 525.257 453.378 525.308 453.209 525.382 453.019 525.507 452.769 525.697 452.468 525.984 452.16 526.358 451.874 526.857 451.595 527.532 451.331 527.532 451.411 527.598 449.21 527.598 446.274 527.598 441.371 527.598 435.17 527.598 426.018 527.598 401.858 527.598 401.799 528.061 401.799 549.571 401.799 549.571 401.748 549.689 401.711 549.733 401.763 549.777 401.763 549.909 401.763 554.019 401.763 554.019 403.759 554.019 404.537 554.019 403.025 554.019 402.181 554.019 402.049 554.019 401.961 554.019 401.902 554.019 401.858 554.063 401.821 554.224 401.777 554.789 401.777 565.064 401.777 565.064 401.821 565.064 443.837 565.49 443.889 569.504 443.889 569.504 453.635 569.504 453.635 569.504 453.598 569.504 453.481 569.504 453.334 569.563 453.165 569.636 452.975 569.754 452.725 569.952 452.424 570.231 452.116 570.612 451.83 571.104 451.551 571.779 451.287 571.779 451.367 571.845 449.166 571.845 446.23 571.845 441.327 571.845 435.126 571.845 425.974M571.845 425.974 571.845 401.902 571.845 401.902 571.845 401.843 572.308 401.843 593.819 401.843 593.819 401.792 593.936 401.755 593.987 401.807 594.024 401.807 594.266 401.807 598.273 401.807 598.273 404.581 598.273 403.069 598.273 402.518 598.273 402.247 598.273 402.115 598.273 402.027 598.273 401.968 598.273 401.924 598.273 401.887 598.435 401.843 598.567 401.843 609.275 401.843 609.275 401.887 609.275 443.903 609.693 443.955 613.707 443.955 613.707 448.358 613.707 453.672 613.707 453.672 613.744 453.635 613.744 453.518 613.744 453.371 613.796 453.202 613.869 453.011 613.986 452.762 614.185 452.461 614.471 452.153 614.845 451.866 615.344 451.587 616.019 451.323 616.019 451.404 616.085 449.202 616.085 446.267 616.085 441.364 616.085 435.163 616.085 426.011 616.085 401.858 616.085 401.799 616.548 401.799 638.058 401.799 638.058 401.748 638.169 401.711 638.22 401.763 638.264 401.763 638.506 401.763 642.506 401.763 642.506 403.025 642.506 402.474 642.506 402.181 642.506 402.049 642.506 401.961 642.506 401.902 642.506 401.858 642.55 401.821 642.704 401.777 642.836 401.777 653.544 401.777 653.544 401.821 653.544 443.837 653.962 443.889 657.977 443.889 657.977 448.292 657.977 453.606 657.977 453.606 658.013 453.569 658.013 453.452 658.013 453.305 658.065 453.136 658.138 452.945 658.256 452.696 658.454 452.395 658.74 452.087 659.114 451.8 659.613 451.521 660.289 451.257 660.289 451.338 660.347 449.136 660.347 446.201M660.347 446.201 660.347 441.298 660.347 435.097 660.347 425.945 660.347 401.858 660.347 401.799 660.421 401.799 661.066 401.799 682.35 401.799 682.35 401.748 682.438 401.748 682.438 401.748 682.482 401.799 682.526 401.799 683.069 401.799 686.738 401.799 686.738 403.795 686.738 403.062 686.738 402.511 686.738 402.181 686.738 402.049 686.738 401.961 686.738 401.902 686.738 401.858 686.783 401.821 686.944 401.777 687.245 401.777 697.776 401.777 697.776 401.821 697.776 443.837 697.776 443.889 702.18 443.889 702.18 453.635 702.18 453.635 702.217 453.598 702.217 453.481 702.217 453.334 702.268 453.165 702.349 452.975 702.466 452.725 702.664 452.424 702.943 452.116 703.317 451.83 703.817 451.551 704.492 451.287 704.492 451.367 704.558 449.166 704.558 446.23 704.558 441.327 704.558 435.126 704.558 425.974 704.558 401.858 704.558 401.799 704.697 401.799 726.531 401.799 726.531 401.748 726.648 401.711 726.7 401.763 726.736 401.763 727.279 401.763 730.949 401.763 730.949 403.759 730.949 404.537 730.949 403.025 730.949 402.474 730.949 402.203 730.949 402.071 730.949 401.983 730.949 401.924 730.949 401.88 730.949 401.843 731.11 401.799 731.419 401.799 741.95 401.799 741.95 401.843 741.95 443.859 742.06 443.911 746.39 443.911 746.39 453.657 746.39 453.657 746.427 453.62 746.427 453.503 746.464 453.356 746.515 453.187 746.589 452.997 746.706 452.747 746.904 452.446 747.183 452.138M747.183 452.138 747.565 451.852 748.064 451.573 748.555 451.375" stroke="#FF00CC" stroke-width="1.76138" stroke-linejoin="round" fill="none" transform="matrix(1 0 0 1.00017 -236.428 -83.4592)"/><text fill="#FF00CC" font-family="Arial,Arial_MSFontService,sans-serif" font-weight="400" font-size="10" transform="matrix(0.733907 0 0 0.73403 13.5186 321)">v(y) c</text><g clip-path="url(#clip10)"><text fill="#FF00CC" font-family="Arial,Arial_MSFontService,sans-serif" font-weight="400" font-size="10" transform="matrix(0.733907 0 0 0.73403 30.8388 321)">h</text></g><text font-family="Arial,Arial_MSFontService,sans-serif" font-weight="400" font-size="10" transform="matrix(0.733907 0 0 0.73403 33.9506 321)">170<tspan font-size="10" x="18" y="0">n</tspan></text><path d="M32.6075 28.6664 32.6075 373.478" stroke="#000000" stroke-width="0.366953" stroke-linejoin="round" fill="none" transform="matrix(1 0 0 1.00017 0.11012 0)"/><path d="M97.6316 29.1141 97.6316 373.478" stroke="#000000" stroke-width="0.880688" stroke-linejoin="round" stroke-dasharray="1.46781 1.46781" fill="none" transform="matrix(1 0 0 1.00017 0.11012 0)"/><path d="M97.6316 382.439 97.6316 384.677" stroke="#000000" stroke-width="0.0366953" stroke-linejoin="round" fill="none" transform="matrix(1 0 0 1.00017 0.11012 0)"/><path d="M91.1292 369.603 113.719 369.603 113.719 378.41 91.1292 378.41Z" fill="#FFFFFF" transform="matrix(1 0 0 1.00017 0.11012 0)"/><path d="M91.1292 369.603 113.719 369.603 113.719 378.41 91.1292 378.41Z" stroke="#000000" stroke-width="0.0366953" stroke-linejoin="round" fill="none" transform="matrix(1 0 0 1.00017 0.11012 0)"/><text fill="#231815" font-family="Arial,Arial_MSFontService,sans-serif" font-weight="400" font-size="10" transform="matrix(0.733907 0 0 0.73403 91.9732 377)">1<tspan font-size="10" x="5.99999" y="0">:</tspan><tspan font-size="10" x="8.99999" y="0">130</tspan><tspan font-size="10" x="27" y="0">n</tspan></text><path d="M68.2166 318.846 516.612 318.846" stroke="#000000" stroke-width="0.366953" stroke-linejoin="round" stroke-dasharray="1.46781 1.46781" fill="none" transform="matrix(1 0 0 1.00017 0.11012 0)"/><path d="M346.514 402.262C346.514 400.235 344.871 398.592 342.845 398.592 340.818 398.592 339.175 400.235 339.175 402.262 339.175 404.288 340.818 405.931 342.845 405.931 344.871 405.931 346.514 404.288 346.514 402.262M342.845 400.06 342.845 404.537M341.267 402.291 344.364 402.291" stroke="#000000" stroke-width="0.366953" stroke-linejoin="round" fill="none" transform="matrix(1 0 0 1.00017 -236.428 -83.4592)"/><path d="M65.736 317.657 82.8214 317.657 82.8214 326.464 65.736 326.464Z" fill="#FFFFFF" transform="matrix(1 0 0 1.00017 0.11012 0)"/><path d="M65.736 317.657 82.8214 317.657 82.8214 326.464 65.736 326.464Z" stroke="#000000" stroke-width="0.366953" stroke-linejoin="round" fill="none" transform="matrix(1 0 0 1.00017 0.11012 0)"/><text fill="#231815" font-family="Arial,Arial_MSFontService,sans-serif" font-weight="400" font-size="10" transform="matrix(0.733907 0 0 0.73403 66.5874 325)">2<tspan font-size="10" x="6" y="0">:</tspan><tspan font-size="10" x="8.99999" y="0">1</tspan><tspan font-size="10" x="15" y="0">.</tspan><tspan font-size="10" x="15.28" y="0">8</tspan></text><path d="" stroke="#000000" stroke-width="0.366953" stroke-linejoin="round" fill="none" transform="matrix(1 0 0 1.00017 -236.428 -83.4592)"/></g></svg>